@startuml
skinparam fixCircleLabelOverlapping true
skinparam componentStyle uml2
component "adminbasic\n\n\n\n\n\n" {
[adminbasic_service_AdminBasicInfoServiceImpl]
[adminbasic_controller_AdminBasicInfoController]
portin " " as adminbasic_requires_SPRING_APPLICATION_api_v1_adminbasicservice_DELETE_GET_POST_PUT_
[adminbasic_controller_AdminBasicInfoController]..>[adminbasic_service_AdminBasicInfoServiceImpl] : requires
"adminbasic_requires_SPRING_APPLICATION_api_v1_adminbasicservice_DELETE_GET_POST_PUT_"--[adminbasic_controller_AdminBasicInfoController]
}
interface "SPRING-APPLICATION/api/v1/adminbasicservice[DELETE,GET,POST,PUT]" as interface.SPRING_APPLICATION_api_v1_adminbasicservice_DELETE_GET_POST_PUT_
interface.SPRING_APPLICATION_api_v1_adminbasicservice_DELETE_GET_POST_PUT_--"adminbasic_requires_SPRING_APPLICATION_api_v1_adminbasicservice_DELETE_GET_POST_PUT_"
component "adminorder\n\n\n\n\n\n" {
[adminorder_controller_AdminOrderController]
[adminorder_service_AdminOrderServiceImpl]
portin " " as adminorder_requires_SPRING_APPLICATION_api_v1_adminorderservice
[adminorder_controller_AdminOrderController]..>[adminorder_service_AdminOrderServiceImpl] : requires
"adminorder_requires_SPRING_APPLICATION_api_v1_adminorderservice"--[adminorder_controller_AdminOrderController]
}
interface "SPRING-APPLICATION/api/v1/adminorderservice" as interface.SPRING_APPLICATION_api_v1_adminorderservice
interface.SPRING_APPLICATION_api_v1_adminorderservice--"adminorder_requires_SPRING_APPLICATION_api_v1_adminorderservice"
component "adminroute\n\n\n\n\n\n" {
[adminroute_service_AdminRouteServiceImpl]
[adminroute_controller_AdminRouteController]
portin " " as adminroute_requires_SPRING_APPLICATION_api_v1_adminrouteservice
[adminroute_controller_AdminRouteController]..>[adminroute_service_AdminRouteServiceImpl] : requires
"adminroute_requires_SPRING_APPLICATION_api_v1_adminrouteservice"--[adminroute_controller_AdminRouteController]
}
interface "SPRING-APPLICATION/api/v1/adminrouteservice" as interface.SPRING_APPLICATION_api_v1_adminrouteservice
interface.SPRING_APPLICATION_api_v1_adminrouteservice--"adminroute_requires_SPRING_APPLICATION_api_v1_adminrouteservice"
component "admintravel\n\n\n\n\n\n" {
[admintravel_controller_AdminTravelController]
[admintravel_service_AdminTravelServiceImpl]
portin " " as admintravel_requires_SPRING_APPLICATION_api_v1_admintravelservice
[admintravel_controller_AdminTravelController]..>[admintravel_service_AdminTravelServiceImpl] : requires
"admintravel_requires_SPRING_APPLICATION_api_v1_admintravelservice"--[admintravel_controller_AdminTravelController]
}
interface "SPRING-APPLICATION/api/v1/admintravelservice" as interface.SPRING_APPLICATION_api_v1_admintravelservice
interface.SPRING_APPLICATION_api_v1_admintravelservice--"admintravel_requires_SPRING_APPLICATION_api_v1_admintravelservice"
component "adminuser\n\n\n\n\n\n" {
[adminuser_service_AdminUserServiceImpl]
[adminuser_controller_AdminUserController]
portin " " as adminuser_requires_SPRING_APPLICATION_api_v1_adminuserservice_users_DELETE_GET_POST_PUT_
[adminuser_controller_AdminUserController]..>[adminuser_service_AdminUserServiceImpl] : requires
"adminuser_requires_SPRING_APPLICATION_api_v1_adminuserservice_users_DELETE_GET_POST_PUT_"--[adminuser_controller_AdminUserController]
}
interface "SPRING-APPLICATION/api/v1/adminuserservice/users[DELETE,GET,POST,PUT]" as interface.SPRING_APPLICATION_api_v1_adminuserservice_users_DELETE_GET_POST_PUT_
interface.SPRING_APPLICATION_api_v1_adminuserservice_users_DELETE_GET_POST_PUT_--"adminuser_requires_SPRING_APPLICATION_api_v1_adminuserservice_users_DELETE_GET_POST_PUT_"
component "assurance\n\n\n\n\n\n" {
[assurance_repository_AssuranceRepository]
[assurance_service_AssuranceServiceImpl]
[assurance_controller_AssuranceController]
portin " " as assurance_requires_SPRING_APPLICATION_api_v1_assuranceservice_DELETE_GET_PATCH_
[assurance_controller_AssuranceController]..>[assurance_service_AssuranceServiceImpl] : requires
[assurance_service_AssuranceServiceImpl]..>[assurance_repository_AssuranceRepository] : requires
"assurance_requires_SPRING_APPLICATION_api_v1_assuranceservice_DELETE_GET_PATCH_"--[assurance_controller_AssuranceController]
}
interface "SPRING-APPLICATION/api/v1/assuranceservice[DELETE,GET,PATCH]" as interface.SPRING_APPLICATION_api_v1_assuranceservice_DELETE_GET_PATCH_
interface.SPRING_APPLICATION_api_v1_assuranceservice_DELETE_GET_PATCH_--"assurance_requires_SPRING_APPLICATION_api_v1_assuranceservice_DELETE_GET_PATCH_"
component "auth\n\n\n\n\n\n" {
[auth_controller_UserController]
[user_controller_UserController]
[auth_service_impl_TokenServiceImpl]
[user_service_impl_UserServiceImpl]
[auth_service_impl_UserServiceImpl]
[user_repository_UserRepository]
[auth_repository_UserRepository]
[auth_security_jwt_JWTProvider]
[auth_controller_AuthController]
portin " " as auth_requires_SPRING_APPLICATION_api_v1_userservice_users
portin " " as auth_requires_SPRING_APPLICATION_api_v1_auth
portin " " as auth_requires_SPRING_APPLICATION_api_v1_users
[auth_controller_UserController]..>[auth_service_impl_TokenServiceImpl] : requires
[auth_service_impl_UserServiceImpl]..>[auth_repository_UserRepository] : requires
[auth_service_impl_TokenServiceImpl]..>[auth_repository_UserRepository] : requires
[auth_controller_UserController]..>[auth_service_impl_UserServiceImpl] : requires
[user_controller_UserController]..>[user_service_impl_UserServiceImpl] : requires
[auth_controller_AuthController]..>[auth_service_impl_UserServiceImpl] : requires
[user_service_impl_UserServiceImpl]..>[user_repository_UserRepository] : requires
[auth_service_impl_TokenServiceImpl]..>[auth_security_jwt_JWTProvider] : requires
"auth_requires_SPRING_APPLICATION_api_v1_auth"--[auth_controller_AuthController]
"auth_requires_SPRING_APPLICATION_api_v1_userservice_users"--[user_controller_UserController]
"auth_requires_SPRING_APPLICATION_api_v1_users"--[auth_controller_UserController]
}
interface "SPRING-APPLICATION/api/v1/auth" as interface.SPRING_APPLICATION_api_v1_auth
interface.SPRING_APPLICATION_api_v1_auth--"auth_requires_SPRING_APPLICATION_api_v1_auth"
interface "SPRING-APPLICATION/api/v1/users" as interface.SPRING_APPLICATION_api_v1_users
interface.SPRING_APPLICATION_api_v1_users--"auth_requires_SPRING_APPLICATION_api_v1_users"
interface "SPRING-APPLICATION/api/v1/userservice/users" as interface.SPRING_APPLICATION_api_v1_userservice_users
interface.SPRING_APPLICATION_api_v1_userservice_users--"auth_requires_SPRING_APPLICATION_api_v1_userservice_users"
component "cancel\n\n\n\n\n\n" {
[cancel_service_CancelServiceImpl]
[cancel_controller_CancelController]
portin " " as cancel_requires_SPRING_APPLICATION_api_v1_cancelservice_GET_
[cancel_controller_CancelController]..>[cancel_service_CancelServiceImpl] : requires
"cancel_requires_SPRING_APPLICATION_api_v1_cancelservice_GET_"--[cancel_controller_CancelController]
}
interface "SPRING-APPLICATION/api/v1/cancelservice[GET]" as interface.SPRING_APPLICATION_api_v1_cancelservice_GET_
interface.SPRING_APPLICATION_api_v1_cancelservice_GET_--"cancel_requires_SPRING_APPLICATION_api_v1_cancelservice_GET_"
component "com_trainticket\n\n\n\n\n\n" {
[com_trainticket_service_PaymentServiceImpl]
[com_trainticket_controller_PaymentController]
[com_trainticket_repository_PaymentRepository]
[com_trainticket_repository_AddMoneyRepository]
portin " " as com_trainticket_requires_SPRING_APPLICATION_api_v1_paymentservice_GET_POST_
[com_trainticket_controller_PaymentController]..>[com_trainticket_service_PaymentServiceImpl] : requires
[com_trainticket_service_PaymentServiceImpl]..>[com_trainticket_repository_PaymentRepository] : requires
[com_trainticket_service_PaymentServiceImpl]..>[com_trainticket_repository_AddMoneyRepository] : requires
"com_trainticket_requires_SPRING_APPLICATION_api_v1_paymentservice_GET_POST_"--[com_trainticket_controller_PaymentController]
}
interface "SPRING-APPLICATION/api/v1/paymentservice[GET,POST]" as interface.SPRING_APPLICATION_api_v1_paymentservice_GET_POST_
interface.SPRING_APPLICATION_api_v1_paymentservice_GET_POST_--"com_trainticket_requires_SPRING_APPLICATION_api_v1_paymentservice_GET_POST_"
component "config\n\n\n\n\n\n" {
[config_service_ConfigServiceImpl]
[config_controller_ConfigController]
[config_repository_ConfigRepository]
portin " " as config_requires_SPRING_APPLICATION_api_v1_configservice
[config_service_ConfigServiceImpl]..>[config_repository_ConfigRepository] : requires
[config_controller_ConfigController]..>[config_service_ConfigServiceImpl] : requires
"config_requires_SPRING_APPLICATION_api_v1_configservice"--[config_controller_ConfigController]
}
interface "SPRING-APPLICATION/api/v1/configservice" as interface.SPRING_APPLICATION_api_v1_configservice
interface.SPRING_APPLICATION_api_v1_configservice--"config_requires_SPRING_APPLICATION_api_v1_configservice"
component "consign\n\n\n\n\n\n" {
[consign_controller_ConsignController]
[consign_repository_ConsignRepository]
[consign_service_ConsignServiceImpl]
portin " " as consign_requires_SPRING_APPLICATION_api_v1_consignservice
[consign_service_ConsignServiceImpl]..>[consign_repository_ConsignRepository] : requires
[consign_controller_ConsignController]..>[consign_service_ConsignServiceImpl] : requires
"consign_requires_SPRING_APPLICATION_api_v1_consignservice"--[consign_controller_ConsignController]
}
interface "SPRING-APPLICATION/api/v1/consignservice" as interface.SPRING_APPLICATION_api_v1_consignservice
interface.SPRING_APPLICATION_api_v1_consignservice--"consign_requires_SPRING_APPLICATION_api_v1_consignservice"
component "consignprice\n\n\n\n\n\n" {
[consignprice_controller_ConsignPriceController]
[consignprice_service_ConsignPriceServiceImpl]
[consignprice_repository_ConsignPriceConfigRepository]
portin " " as consignprice_requires_SPRING_APPLICATION_api_v1_consignpriceservice
[consignprice_service_ConsignPriceServiceImpl]..>[consignprice_repository_ConsignPriceConfigRepository] : requires
[consignprice_controller_ConsignPriceController]..>[consignprice_service_ConsignPriceServiceImpl] : requires
"consignprice_requires_SPRING_APPLICATION_api_v1_consignpriceservice"--[consignprice_controller_ConsignPriceController]
}
interface "SPRING-APPLICATION/api/v1/consignpriceservice" as interface.SPRING_APPLICATION_api_v1_consignpriceservice
interface.SPRING_APPLICATION_api_v1_consignpriceservice--"consignprice_requires_SPRING_APPLICATION_api_v1_consignpriceservice"
component "contacts\n\n\n\n\n\n" {
[contacts_service_ContactsServiceImpl]
[contacts_repository_ContactsRepository]
[contacts_controller_ContactsController]
portin " " as contacts_requires_SPRING_APPLICATION_api_v1_contactservice_DELETE_GET_POST_PUT_
[contacts_controller_ContactsController]..>[contacts_service_ContactsServiceImpl] : requires
[contacts_service_ContactsServiceImpl]..>[contacts_repository_ContactsRepository] : requires
"contacts_requires_SPRING_APPLICATION_api_v1_contactservice_DELETE_GET_POST_PUT_"--[contacts_controller_ContactsController]
}
interface "SPRING-APPLICATION/api/v1/contactservice[DELETE,GET,POST,PUT]" as interface.SPRING_APPLICATION_api_v1_contactservice_DELETE_GET_POST_PUT_
interface.SPRING_APPLICATION_api_v1_contactservice_DELETE_GET_POST_PUT_--"contacts_requires_SPRING_APPLICATION_api_v1_contactservice_DELETE_GET_POST_PUT_"
component "execute\n\n\n\n\n\n" {
[execute_controller_ExecuteControlller]
[execute_serivce_ExecuteServiceImpl]
portin " " as execute_requires_SPRING_APPLICATION_api_v1_executeservice_GET_
[execute_controller_ExecuteControlller]..>[execute_serivce_ExecuteServiceImpl] : requires
"execute_requires_SPRING_APPLICATION_api_v1_executeservice_GET_"--[execute_controller_ExecuteControlller]
}
interface "SPRING-APPLICATION/api/v1/executeservice[GET]" as interface.SPRING_APPLICATION_api_v1_executeservice_GET_
interface.SPRING_APPLICATION_api_v1_executeservice_GET_--"execute_requires_SPRING_APPLICATION_api_v1_executeservice_GET_"
component "fdse_microservice\n\n\n\n\n\n" {
[fdse_microservice_service_StationServiceImpl]
[fdse_microservice_repository_StationRepository]
[fdse_microservice_controller_StationController]
portin " " as fdse_microservice_requires_SPRING_APPLICATION_api_v1_stationservice
[fdse_microservice_service_StationServiceImpl]..>[fdse_microservice_repository_StationRepository] : requires
[fdse_microservice_controller_StationController]..>[fdse_microservice_service_StationServiceImpl] : requires
"fdse_microservice_requires_SPRING_APPLICATION_api_v1_stationservice"--[fdse_microservice_controller_StationController]
}
interface "SPRING-APPLICATION/api/v1/stationservice" as interface.SPRING_APPLICATION_api_v1_stationservice
interface.SPRING_APPLICATION_api_v1_stationservice--"fdse_microservice_requires_SPRING_APPLICATION_api_v1_stationservice"
component "fdse_microservice 2\n\n\n\n\n\n" {
[fdse_microservice_service_BasicServiceImpl]
[fdse_microservice_controller_BasicController]
portin " " as fdse_microservice_2_requires_SPRING_APPLICATION_api_v1_basicservice
[fdse_microservice_controller_BasicController]..>[fdse_microservice_service_BasicServiceImpl] : requires
"fdse_microservice_2_requires_SPRING_APPLICATION_api_v1_basicservice"--[fdse_microservice_controller_BasicController]
}
interface "SPRING-APPLICATION/api/v1/basicservice" as interface.SPRING_APPLICATION_api_v1_basicservice
interface.SPRING_APPLICATION_api_v1_basicservice--"fdse_microservice_2_requires_SPRING_APPLICATION_api_v1_basicservice"
component "food\n\n\n\n\n\n" {
[food_service_StationFoodServiceImpl]
[food_repository_StationFoodRepository]
[food_controller_StationFoodController]
portin " " as food_requires_SPRING_APPLICATION_api_v1_stationfoodservice
[food_service_StationFoodServiceImpl]..>[food_repository_StationFoodRepository] : requires
[food_controller_StationFoodController]..>[food_service_StationFoodServiceImpl] : requires
"food_requires_SPRING_APPLICATION_api_v1_stationfoodservice"--[food_controller_StationFoodController]
}
interface "SPRING-APPLICATION/api/v1/stationfoodservice" as interface.SPRING_APPLICATION_api_v1_stationfoodservice
interface.SPRING_APPLICATION_api_v1_stationfoodservice--"food_requires_SPRING_APPLICATION_api_v1_stationfoodservice"
component "food_delivery\n\n\n\n\n\n" {
[food_delivery_service_FoodDeliveryServiceImpl]
[food_delivery_repository_FoodDeliveryOrderRepository]
[food_delivery_controller_FoodDeliveryController]
portin " " as food_delivery_requires_SPRING_APPLICATION_api_v1_fooddeliveryservice
[food_delivery_controller_FoodDeliveryController]..>[food_delivery_service_FoodDeliveryServiceImpl] : requires
[food_delivery_service_FoodDeliveryServiceImpl]..>[food_delivery_repository_FoodDeliveryOrderRepository] : requires
"food_delivery_requires_SPRING_APPLICATION_api_v1_fooddeliveryservice"--[food_delivery_controller_FoodDeliveryController]
}
interface "SPRING-APPLICATION/api/v1/fooddeliveryservice" as interface.SPRING_APPLICATION_api_v1_fooddeliveryservice
interface.SPRING_APPLICATION_api_v1_fooddeliveryservice--"food_delivery_requires_SPRING_APPLICATION_api_v1_fooddeliveryservice"
component "foodsearch\n\n\n\n\n\n" {
[foodsearch_repository_FoodOrderRepository]
[foodsearch_mq_RabbitSend]
[foodsearch_service_FoodServiceImpl]
[foodsearch_controller_FoodController]
portin " " as foodsearch_requires_SPRING_APPLICATION_api_v1_foodservice_DELETE_GET_POST_PUT_
[foodsearch_controller_FoodController]..>[foodsearch_service_FoodServiceImpl] : requires
[foodsearch_controller_FoodController]..>[foodsearch_mq_RabbitSend] : requires
[foodsearch_service_FoodServiceImpl]..>[foodsearch_repository_FoodOrderRepository] : requires
[foodsearch_service_FoodServiceImpl]..>[foodsearch_mq_RabbitSend] : requires
"foodsearch_requires_SPRING_APPLICATION_api_v1_foodservice_DELETE_GET_POST_PUT_"--[foodsearch_controller_FoodController]
}
interface "SPRING-APPLICATION/api/v1/foodservice[DELETE,GET,POST,PUT]" as interface.SPRING_APPLICATION_api_v1_foodservice_DELETE_GET_POST_PUT_
interface.SPRING_APPLICATION_api_v1_foodservice_DELETE_GET_POST_PUT_--"foodsearch_requires_SPRING_APPLICATION_api_v1_foodservice_DELETE_GET_POST_PUT_"
component "inside_payment\n\n\n\n\n\n" {
[inside_payment_controller_InsidePaymentController]
[inside_payment_repository_PaymentRepository]
[inside_payment_service_InsidePaymentServiceImpl]
[inside_payment_repository_AddMoneyRepository]
portin " " as inside_payment_requires_SPRING_APPLICATION_api_v1_inside_pay_service
[inside_payment_service_InsidePaymentServiceImpl]..>[inside_payment_repository_AddMoneyRepository] : requires
[inside_payment_service_InsidePaymentServiceImpl]..>[inside_payment_repository_PaymentRepository] : requires
[inside_payment_controller_InsidePaymentController]..>[inside_payment_service_InsidePaymentServiceImpl] : requires
"inside_payment_requires_SPRING_APPLICATION_api_v1_inside_pay_service"--[inside_payment_controller_InsidePaymentController]
}
interface "SPRING-APPLICATION/api/v1/inside_pay_service" as interface.SPRING_APPLICATION_api_v1_inside_pay_service
interface.SPRING_APPLICATION_api_v1_inside_pay_service--"inside_payment_requires_SPRING_APPLICATION_api_v1_inside_pay_service"
component "notification\n\n\n\n\n\n" {
[notification_service_NotificationServiceImpl]
[notification_controller_NotificationController]
[notification_service_MailService]
[notification_mq_RabbitSend]
portin " " as notification_requires_SPRING_APPLICATION_api_v1_notifyservice
[notification_controller_NotificationController]..>[notification_service_NotificationServiceImpl] : requires
[notification_service_NotificationServiceImpl]..>[notification_service_MailService] : requires
[notification_controller_NotificationController]..>[notification_mq_RabbitSend] : requires
"notification_requires_SPRING_APPLICATION_api_v1_notifyservice"--[notification_controller_NotificationController]
}
interface "SPRING-APPLICATION/api/v1/notifyservice" as interface.SPRING_APPLICATION_api_v1_notifyservice
interface.SPRING_APPLICATION_api_v1_notifyservice--"notification_requires_SPRING_APPLICATION_api_v1_notifyservice"
component "order\n\n\n\n\n\n" {
[order_controller_OrderController]
[order_service_OrderServiceImpl]
[order_repository_OrderRepository]
portin " " as order_requires_SPRING_APPLICATION_api_v1_orderservice
[order_service_OrderServiceImpl]..>[order_repository_OrderRepository] : requires
[order_controller_OrderController]..>[order_service_OrderServiceImpl] : requires
"order_requires_SPRING_APPLICATION_api_v1_orderservice"--[order_controller_OrderController]
}
interface "SPRING-APPLICATION/api/v1/orderservice" as interface.SPRING_APPLICATION_api_v1_orderservice
interface.SPRING_APPLICATION_api_v1_orderservice--"order_requires_SPRING_APPLICATION_api_v1_orderservice"
component "other\n\n\n\n\n\n" {
[other_controller_OrderOtherController]
[other_service_OrderOtherServiceImpl]
[other_repository_OrderOtherRepository]
portin " " as other_requires_SPRING_APPLICATION_api_v1_orderOtherService
[other_service_OrderOtherServiceImpl]..>[other_repository_OrderOtherRepository] : requires
[other_controller_OrderOtherController]..>[other_service_OrderOtherServiceImpl] : requires
"other_requires_SPRING_APPLICATION_api_v1_orderOtherService"--[other_controller_OrderOtherController]
}
interface "SPRING-APPLICATION/api/v1/orderOtherService" as interface.SPRING_APPLICATION_api_v1_orderOtherService
interface.SPRING_APPLICATION_api_v1_orderOtherService--"other_requires_SPRING_APPLICATION_api_v1_orderOtherService"
component "plan\n\n\n\n\n\n" {
[plan_controller_RoutePlanController]
[plan_service_RoutePlanServiceImpl]
portin " " as plan_requires_SPRING_APPLICATION_api_v1_routeplanservice
[plan_controller_RoutePlanController]..>[plan_service_RoutePlanServiceImpl] : requires
"plan_requires_SPRING_APPLICATION_api_v1_routeplanservice"--[plan_controller_RoutePlanController]
}
interface "SPRING-APPLICATION/api/v1/routeplanservice" as interface.SPRING_APPLICATION_api_v1_routeplanservice
interface.SPRING_APPLICATION_api_v1_routeplanservice--"plan_requires_SPRING_APPLICATION_api_v1_routeplanservice"
component "preserve\n\n\n\n\n\n" {
[preserve_mq_RabbitSend]
[preserve_controller_PreserveController]
[preserve_service_PreserveServiceImpl]
portin " " as preserve_requires_SPRING_APPLICATION_api_v1_preserveservice
[preserve_controller_PreserveController]..>[preserve_service_PreserveServiceImpl] : requires
[preserve_service_PreserveServiceImpl]..>[preserve_mq_RabbitSend] : requires
"preserve_requires_SPRING_APPLICATION_api_v1_preserveservice"--[preserve_controller_PreserveController]
}
interface "SPRING-APPLICATION/api/v1/preserveservice" as interface.SPRING_APPLICATION_api_v1_preserveservice
interface.SPRING_APPLICATION_api_v1_preserveservice--"preserve_requires_SPRING_APPLICATION_api_v1_preserveservice"
component "preserveOther\n\n\n\n\n\n" {
[preserveOther_controller_PreserveOtherController]
[preserveOther_mq_RabbitSend]
[preserveOther_service_PreserveOtherServiceImpl]
portin " " as preserveOther_requires_SPRING_APPLICATION_api_v1_preserveotherservice
[preserveOther_controller_PreserveOtherController]..>[preserveOther_service_PreserveOtherServiceImpl] : requires
[preserveOther_service_PreserveOtherServiceImpl]..>[preserveOther_mq_RabbitSend] : requires
"preserveOther_requires_SPRING_APPLICATION_api_v1_preserveotherservice"--[preserveOther_controller_PreserveOtherController]
}
interface "SPRING-APPLICATION/api/v1/preserveotherservice" as interface.SPRING_APPLICATION_api_v1_preserveotherservice
interface.SPRING_APPLICATION_api_v1_preserveotherservice--"preserveOther_requires_SPRING_APPLICATION_api_v1_preserveotherservice"
component "price\n\n\n\n\n\n" {
[price_service_PriceServiceImpl]
[price_repository_PriceConfigRepository]
[price_controller_PriceController]
portin " " as price_requires_SPRING_APPLICATION_api_v1_priceservice
[price_controller_PriceController]..>[price_service_PriceServiceImpl] : requires
[price_service_PriceServiceImpl]..>[price_repository_PriceConfigRepository] : requires
"price_requires_SPRING_APPLICATION_api_v1_priceservice"--[price_controller_PriceController]
}
interface "SPRING-APPLICATION/api/v1/priceservice" as interface.SPRING_APPLICATION_api_v1_priceservice
interface.SPRING_APPLICATION_api_v1_priceservice--"price_requires_SPRING_APPLICATION_api_v1_priceservice"
component "rebook\n\n\n\n\n\n" {
[rebook_controller_RebookController]
[rebook_service_RebookServiceImpl]
portin " " as rebook_requires_SPRING_APPLICATION_api_v1_rebookservice
[rebook_controller_RebookController]..>[rebook_service_RebookServiceImpl] : requires
"rebook_requires_SPRING_APPLICATION_api_v1_rebookservice"--[rebook_controller_RebookController]
}
interface "SPRING-APPLICATION/api/v1/rebookservice" as interface.SPRING_APPLICATION_api_v1_rebookservice
interface.SPRING_APPLICATION_api_v1_rebookservice--"rebook_requires_SPRING_APPLICATION_api_v1_rebookservice"
component "route\n\n\n\n\n\n" {
[route_repository_RouteRepository]
[route_controller_RouteController]
[route_service_RouteServiceImpl]
portin " " as route_requires_SPRING_APPLICATION_api_v1_routeservice_DELETE_GET_POST_
[route_controller_RouteController]..>[route_service_RouteServiceImpl] : requires
[route_service_RouteServiceImpl]..>[route_repository_RouteRepository] : requires
"route_requires_SPRING_APPLICATION_api_v1_routeservice_DELETE_GET_POST_"--[route_controller_RouteController]
}
interface "SPRING-APPLICATION/api/v1/routeservice[DELETE,GET,POST]" as interface.SPRING_APPLICATION_api_v1_routeservice_DELETE_GET_POST_
interface.SPRING_APPLICATION_api_v1_routeservice_DELETE_GET_POST_--"route_requires_SPRING_APPLICATION_api_v1_routeservice_DELETE_GET_POST_"
component "seat\n\n\n\n\n\n" {
[seat_controller_SeatController]
[seat_service_SeatServiceImpl]
portin " " as seat_requires_SPRING_APPLICATION_api_v1_seatservice
[seat_controller_SeatController]..>[seat_service_SeatServiceImpl] : requires
"seat_requires_SPRING_APPLICATION_api_v1_seatservice"--[seat_controller_SeatController]
}
interface "SPRING-APPLICATION/api/v1/seatservice" as interface.SPRING_APPLICATION_api_v1_seatservice
interface.SPRING_APPLICATION_api_v1_seatservice--"seat_requires_SPRING_APPLICATION_api_v1_seatservice"
component "security\n\n\n\n\n\n" {
[security_repository_SecurityRepository]
[security_service_SecurityServiceImpl]
[security_controller_SecurityController]
portin " " as security_requires_SPRING_APPLICATION_api_v1_securityservice
[security_controller_SecurityController]..>[security_service_SecurityServiceImpl] : requires
[security_service_SecurityServiceImpl]..>[security_repository_SecurityRepository] : requires
"security_requires_SPRING_APPLICATION_api_v1_securityservice"--[security_controller_SecurityController]
}
interface "SPRING-APPLICATION/api/v1/securityservice" as interface.SPRING_APPLICATION_api_v1_securityservice
interface.SPRING_APPLICATION_api_v1_securityservice--"security_requires_SPRING_APPLICATION_api_v1_securityservice"
component "train\n\n\n\n\n\n" {
[train_controller_TrainController]
[train_repository_TrainTypeRepository]
[train_service_TrainServiceImpl]
portin " " as train_requires_SPRING_APPLICATION_api_v1_trainservice
[train_service_TrainServiceImpl]..>[train_repository_TrainTypeRepository] : requires
[train_controller_TrainController]..>[train_service_TrainServiceImpl] : requires
"train_requires_SPRING_APPLICATION_api_v1_trainservice"--[train_controller_TrainController]
}
interface "SPRING-APPLICATION/api/v1/trainservice" as interface.SPRING_APPLICATION_api_v1_trainservice
interface.SPRING_APPLICATION_api_v1_trainservice--"train_requires_SPRING_APPLICATION_api_v1_trainservice"
component "trainFood\n\n\n\n\n\n" {
[trainFood_controller_TrainFoodController]
[trainFood_repository_TrainFoodRepository]
[trainFood_service_TrainFoodServiceImpl]
portin " " as trainFood_requires_SPRING_APPLICATION_api_v1_trainfoodservice
[trainFood_service_TrainFoodServiceImpl]..>[trainFood_repository_TrainFoodRepository] : requires
[trainFood_controller_TrainFoodController]..>[trainFood_service_TrainFoodServiceImpl] : requires
"trainFood_requires_SPRING_APPLICATION_api_v1_trainfoodservice"--[trainFood_controller_TrainFoodController]
}
interface "SPRING-APPLICATION/api/v1/trainfoodservice" as interface.SPRING_APPLICATION_api_v1_trainfoodservice
interface.SPRING_APPLICATION_api_v1_trainfoodservice--"trainFood_requires_SPRING_APPLICATION_api_v1_trainfoodservice"
component "travel2\n\n\n\n\n\n" {
[travel2_controller_Travel2Controller]
[travel_controller_TravelController]
[travel2_service_TravelServiceImpl]
[travel_repository_TripRepository]
[travel2_repository_TripRepository]
[travel_service_TravelServiceImpl]
portin " " as travel2_requires_SPRING_APPLICATION_api_v1_travelservice
portin " " as travel2_requires_SPRING_APPLICATION_api_v1_travel2service
[travel2_service_TravelServiceImpl]..>[travel2_repository_TripRepository] : requires
[travel2_controller_Travel2Controller]..>[travel2_service_TravelServiceImpl] : requires
[travel_controller_TravelController]..>[travel_service_TravelServiceImpl] : requires
[travel_service_TravelServiceImpl]..>[travel_repository_TripRepository] : requires
"travel2_requires_SPRING_APPLICATION_api_v1_travel2service"--[travel2_controller_Travel2Controller]
"travel2_requires_SPRING_APPLICATION_api_v1_travelservice"--[travel_controller_TravelController]
}
interface "SPRING-APPLICATION/api/v1/travel2service" as interface.SPRING_APPLICATION_api_v1_travel2service
interface.SPRING_APPLICATION_api_v1_travel2service--"travel2_requires_SPRING_APPLICATION_api_v1_travel2service"
interface "SPRING-APPLICATION/api/v1/travelservice" as interface.SPRING_APPLICATION_api_v1_travelservice
interface.SPRING_APPLICATION_api_v1_travelservice--"travel2_requires_SPRING_APPLICATION_api_v1_travelservice"
component "travelplan\n\n\n\n\n\n" {
[travelplan_controller_TravelPlanController]
[travelplan_service_TravelPlanServiceImpl]
portin " " as travelplan_requires_SPRING_APPLICATION_api_v1_travelplanservice
[travelplan_controller_TravelPlanController]..>[travelplan_service_TravelPlanServiceImpl] : requires
"travelplan_requires_SPRING_APPLICATION_api_v1_travelplanservice"--[travelplan_controller_TravelPlanController]
}
interface "SPRING-APPLICATION/api/v1/travelplanservice" as interface.SPRING_APPLICATION_api_v1_travelplanservice
interface.SPRING_APPLICATION_api_v1_travelplanservice--"travelplan_requires_SPRING_APPLICATION_api_v1_travelplanservice"
component "verifycode\n\n\n\n\n\n" {
[verifycode_controller_VerifyCodeController]
[verifycode_service_impl_VerifyCodeServiceImpl]
portin " " as verifycode_requires_SPRING_APPLICATION_api_v1_verifycode
[verifycode_controller_VerifyCodeController]..>[verifycode_service_impl_VerifyCodeServiceImpl] : requires
"verifycode_requires_SPRING_APPLICATION_api_v1_verifycode"--[verifycode_controller_VerifyCodeController]
}
interface "SPRING-APPLICATION/api/v1/verifycode" as interface.SPRING_APPLICATION_api_v1_verifycode
interface.SPRING_APPLICATION_api_v1_verifycode--"verifycode_requires_SPRING_APPLICATION_api_v1_verifycode"
component "waitorder\n\n\n\n\n\n" {
[waitorder_service_Impl_WaitListOrderServiceImpl]
[waitorder_controller_WaitListOrderController]
[waitorder_repository_WaitListOrderRepository]
portin " " as waitorder_requires_SPRING_APPLICATION_api_v1_waitorderservice_GET_POST_
[waitorder_service_Impl_WaitListOrderServiceImpl]..>[waitorder_repository_WaitListOrderRepository] : requires
[waitorder_controller_WaitListOrderController]..>[waitorder_service_Impl_WaitListOrderServiceImpl] : requires
"waitorder_requires_SPRING_APPLICATION_api_v1_waitorderservice_GET_POST_"--[waitorder_controller_WaitListOrderController]
}
interface "SPRING-APPLICATION/api/v1/waitorderservice[GET,POST]" as interface.SPRING_APPLICATION_api_v1_waitorderservice_GET_POST_
interface.SPRING_APPLICATION_api_v1_waitorderservice_GET_POST_--"waitorder_requires_SPRING_APPLICATION_api_v1_waitorderservice_GET_POST_"
interface "adminbasic_service_DiscoveryClient" as interface.adminbasic_service_DiscoveryClient
interface.adminbasic_service_DiscoveryClient--[adminbasic_service_DiscoveryClient_Provider]
interface "adminbasic_service_RestTemplate" as interface.adminbasic_service_RestTemplate
interface.adminbasic_service_RestTemplate--[adminbasic_service_RestTemplate_Provider]
interface "adminorder_service_DiscoveryClient" as interface.adminorder_service_DiscoveryClient
interface.adminorder_service_DiscoveryClient--[adminorder_service_DiscoveryClient_Provider]
interface "adminorder_service_RestTemplate" as interface.adminorder_service_RestTemplate
interface.adminorder_service_RestTemplate--[adminorder_service_RestTemplate_Provider]
interface "adminroute_service_DiscoveryClient" as interface.adminroute_service_DiscoveryClient
interface.adminroute_service_DiscoveryClient--[adminroute_service_DiscoveryClient_Provider]
interface "adminroute_service_RestTemplate" as interface.adminroute_service_RestTemplate
interface.adminroute_service_RestTemplate--[adminroute_service_RestTemplate_Provider]
interface "admintravel_service_DiscoveryClient" as interface.admintravel_service_DiscoveryClient
interface.admintravel_service_DiscoveryClient--[admintravel_service_DiscoveryClient_Provider]
interface "admintravel_service_RestTemplate" as interface.admintravel_service_RestTemplate
interface.admintravel_service_RestTemplate--[admintravel_service_RestTemplate_Provider]
interface "adminuser_service_DiscoveryClient" as interface.adminuser_service_DiscoveryClient
interface.adminuser_service_DiscoveryClient--[adminuser_service_DiscoveryClient_Provider]
interface "adminuser_service_RestTemplate" as interface.adminuser_service_RestTemplate
interface.adminuser_service_RestTemplate--[adminuser_service_RestTemplate_Provider]
interface "auth_service_impl_AuthenticationManager" as interface.auth_service_impl_AuthenticationManager
interface.auth_service_impl_AuthenticationManager--[auth_service_impl_AuthenticationManager_Provider]
interface "auth_service_impl_DiscoveryClient" as interface.auth_service_impl_DiscoveryClient
interface.auth_service_impl_DiscoveryClient--[auth_service_impl_DiscoveryClient_Provider]
interface "auth_service_impl_PasswordEncoder" as interface.auth_service_impl_PasswordEncoder
interface.auth_service_impl_PasswordEncoder--[auth_service_impl_PasswordEncoder_Provider]
interface "auth_service_impl_RestTemplate" as interface.auth_service_impl_RestTemplate
interface.auth_service_impl_RestTemplate--[auth_service_impl_RestTemplate_Provider]
interface "cancel_service_DiscoveryClient" as interface.cancel_service_DiscoveryClient
interface.cancel_service_DiscoveryClient--[cancel_service_DiscoveryClient_Provider]
interface "cancel_service_RestTemplate" as interface.cancel_service_RestTemplate
interface.cancel_service_RestTemplate--[cancel_service_RestTemplate_Provider]
interface "consign_service_DiscoveryClient" as interface.consign_service_DiscoveryClient
interface.consign_service_DiscoveryClient--[consign_service_DiscoveryClient_Provider]
interface "consign_service_RestTemplate" as interface.consign_service_RestTemplate
interface.consign_service_RestTemplate--[consign_service_RestTemplate_Provider]
interface "execute_serivce_DiscoveryClient" as interface.execute_serivce_DiscoveryClient
interface.execute_serivce_DiscoveryClient--[execute_serivce_DiscoveryClient_Provider]
interface "execute_serivce_RestTemplate" as interface.execute_serivce_RestTemplate
interface.execute_serivce_RestTemplate--[execute_serivce_RestTemplate_Provider]
interface "fdse_microservice_service_DiscoveryClient" as interface.fdse_microservice_service_DiscoveryClient
interface.fdse_microservice_service_DiscoveryClient--[fdse_microservice_service_DiscoveryClient_Provider]
interface "fdse_microservice_service_RestTemplate" as interface.fdse_microservice_service_RestTemplate
interface.fdse_microservice_service_RestTemplate--[fdse_microservice_service_RestTemplate_Provider]
interface "food_delivery_service_DiscoveryClient" as interface.food_delivery_service_DiscoveryClient
interface.food_delivery_service_DiscoveryClient--[food_delivery_service_DiscoveryClient_Provider]
interface "food_delivery_service_RestTemplate" as interface.food_delivery_service_RestTemplate
interface.food_delivery_service_RestTemplate--[food_delivery_service_RestTemplate_Provider]
interface "foodsearch_service_DiscoveryClient" as interface.foodsearch_service_DiscoveryClient
interface.foodsearch_service_DiscoveryClient--[foodsearch_service_DiscoveryClient_Provider]
interface "foodsearch_service_RestTemplate" as interface.foodsearch_service_RestTemplate
interface.foodsearch_service_RestTemplate--[foodsearch_service_RestTemplate_Provider]
interface "inside_payment_service_RestTemplate" as interface.inside_payment_service_RestTemplate
interface.inside_payment_service_RestTemplate--[inside_payment_service_RestTemplate_Provider]
interface "notification_service_Configuration" as interface.notification_service_Configuration
interface.notification_service_Configuration--[notification_service_Configuration_Provider]
interface "notification_service_JavaMailSender$2" as interface.notification_service_JavaMailSender_2
interface.notification_service_JavaMailSender_2--[notification_service_JavaMailSender_2_Provider]
interface "notification_service_JavaMailSender" as interface.notification_service_JavaMailSender
interface.notification_service_JavaMailSender--[notification_service_JavaMailSender_Provider]
interface "order_service_DiscoveryClient" as interface.order_service_DiscoveryClient
interface.order_service_DiscoveryClient--[order_service_DiscoveryClient_Provider]
interface "order_service_RestTemplate" as interface.order_service_RestTemplate
interface.order_service_RestTemplate--[order_service_RestTemplate_Provider]
interface "other_service_DiscoveryClient" as interface.other_service_DiscoveryClient
interface.other_service_DiscoveryClient--[other_service_DiscoveryClient_Provider]
interface "other_service_RestTemplate" as interface.other_service_RestTemplate
interface.other_service_RestTemplate--[other_service_RestTemplate_Provider]
interface "plan_service_DiscoveryClient" as interface.plan_service_DiscoveryClient
interface.plan_service_DiscoveryClient--[plan_service_DiscoveryClient_Provider]
interface "plan_service_RestTemplate" as interface.plan_service_RestTemplate
interface.plan_service_RestTemplate--[plan_service_RestTemplate_Provider]
interface "preserveOther_service_DiscoveryClient" as interface.preserveOther_service_DiscoveryClient
interface.preserveOther_service_DiscoveryClient--[preserveOther_service_DiscoveryClient_Provider]
interface "preserveOther_service_RestTemplate" as interface.preserveOther_service_RestTemplate
interface.preserveOther_service_RestTemplate--[preserveOther_service_RestTemplate_Provider]
interface "preserve_service_DiscoveryClient" as interface.preserve_service_DiscoveryClient
interface.preserve_service_DiscoveryClient--[preserve_service_DiscoveryClient_Provider]
interface "preserve_service_RestTemplate" as interface.preserve_service_RestTemplate
interface.preserve_service_RestTemplate--[preserve_service_RestTemplate_Provider]
interface "rebook_service_DiscoveryClient" as interface.rebook_service_DiscoveryClient
interface.rebook_service_DiscoveryClient--[rebook_service_DiscoveryClient_Provider]
interface "rebook_service_RestTemplate" as interface.rebook_service_RestTemplate
interface.rebook_service_RestTemplate--[rebook_service_RestTemplate_Provider]
interface "seat_service_DiscoveryClient" as interface.seat_service_DiscoveryClient
interface.seat_service_DiscoveryClient--[seat_service_DiscoveryClient_Provider]
interface "seat_service_RestTemplate" as interface.seat_service_RestTemplate
interface.seat_service_RestTemplate--[seat_service_RestTemplate_Provider]
interface "security_service_DiscoveryClient" as interface.security_service_DiscoveryClient
interface.security_service_DiscoveryClient--[security_service_DiscoveryClient_Provider]
interface "security_service_RestTemplate" as interface.security_service_RestTemplate
interface.security_service_RestTemplate--[security_service_RestTemplate_Provider]
interface "travel2_service_DiscoveryClient" as interface.travel2_service_DiscoveryClient
interface.travel2_service_DiscoveryClient--[travel2_service_DiscoveryClient_Provider]
interface "travel2_service_RestTemplate" as interface.travel2_service_RestTemplate
interface.travel2_service_RestTemplate--[travel2_service_RestTemplate_Provider]
interface "travel_service_DiscoveryClient" as interface.travel_service_DiscoveryClient
interface.travel_service_DiscoveryClient--[travel_service_DiscoveryClient_Provider]
interface "travel_service_RestTemplate" as interface.travel_service_RestTemplate
interface.travel_service_RestTemplate--[travel_service_RestTemplate_Provider]
interface "travelplan_service_DiscoveryClient" as interface.travelplan_service_DiscoveryClient
interface.travelplan_service_DiscoveryClient--[travelplan_service_DiscoveryClient_Provider]
interface "travelplan_service_RestTemplate" as interface.travelplan_service_RestTemplate
interface.travelplan_service_RestTemplate--[travelplan_service_RestTemplate_Provider]
interface "user_service_impl_DiscoveryClient" as interface.user_service_impl_DiscoveryClient
interface.user_service_impl_DiscoveryClient--[user_service_impl_DiscoveryClient_Provider]
interface "user_service_impl_RestTemplate" as interface.user_service_impl_RestTemplate
interface.user_service_impl_RestTemplate--[user_service_impl_RestTemplate_Provider]
interface "waitorder_service_Impl_DiscoveryClient" as interface.waitorder_service_Impl_DiscoveryClient
interface.waitorder_service_Impl_DiscoveryClient--[waitorder_service_Impl_DiscoveryClient_Provider]
interface "waitorder_service_Impl_RestTemplate" as interface.waitorder_service_Impl_RestTemplate
interface.waitorder_service_Impl_RestTemplate--[waitorder_service_Impl_RestTemplate_Provider]

@enduml
