@startuml
skinparam fixCircleLabelOverlapping true
skinparam componentStyle uml2
component "com_apssouza\n\n\n\n\n\n" {
[com_apssouza_bootstrap_UserLoader]
[com_apssouza_controllers_AccountController]
[com_apssouza_services_AccountServiceImpl]
[com_apssouza_repositories_AccountRepository]
portin " " as com_apssouza_requires_user_accounts_POST_
portin " " as com_apssouza_requires_user_accounts_search_GET_
portin " " as com_apssouza_requires_user_accounts_GET_
portin " " as com_apssouza_requires_user_accounts
portin " " as com_apssouza_requires_user_accounts_GET_2
[com_apssouza_controllers_AccountController]..>[com_apssouza_services_AccountServiceImpl] : requires
[com_apssouza_bootstrap_UserLoader]..>[com_apssouza_repositories_AccountRepository] : requires
[com_apssouza_services_AccountServiceImpl]..>[com_apssouza_repositories_AccountRepository] : requires
"com_apssouza_requires_user_accounts_search_GET_"--[com_apssouza_controllers_AccountController]
"com_apssouza_requires_user_accounts_POST_"--[com_apssouza_controllers_AccountController]
"com_apssouza_requires_user_accounts_GET_"--[com_apssouza_controllers_AccountController]
"com_apssouza_requires_user_accounts_GET_2"--[com_apssouza_controllers_AccountController]
}
interface "user/accounts[GET]$2" as interface.user_accounts_GET_2
interface.user_accounts_GET_2--"com_apssouza_requires_user_accounts_GET_2"
interface "user/accounts[GET]" as interface.user_accounts_GET_
interface.user_accounts_GET_--"com_apssouza_requires_user_accounts_GET_"
interface "user/accounts[POST]" as interface.user_accounts_POST_
interface.user_accounts_POST_--"com_apssouza_requires_user_accounts_POST_"
interface "user/accounts" as interface.user_accounts
interface.user_accounts--"com_apssouza_requires_user_accounts"
interface "user/accounts/search[GET]" as interface.user_accounts_search_GET_
interface.user_accounts_search_GET_--"com_apssouza_requires_user_accounts_search_GET_"
component "com_apssouza 2\n\n\n\n\n\n" {
[com_apssouza_mailservice_controllers_NotifyController]
[com_apssouza_eventsourcing_commands_EmailCommandHandler]
portin " " as com_apssouza_2_requires_mailer_send_email_GET_
[com_apssouza_mailservice_controllers_NotifyController]..>[com_apssouza_eventsourcing_commands_EmailCommandHandler] : requires
"com_apssouza_2_requires_mailer_send_email_GET_"--[com_apssouza_mailservice_controllers_NotifyController]
}
interface "mailer/send/email[GET]" as interface.mailer_send_email_GET_
interface.mailer_send_email_GET_--"com_apssouza_2_requires_mailer_send_email_GET_"
component "com_apssouza 3\n\n\n\n\n\n" {
[com_apssouza_controllers_TodoServiceStatisticsController]
[com_apssouza_monitors_TodoServiceMethodInvokedStore]
portin " " as com_apssouza_3_requires_reminder_todo_statistics_GET_
[com_apssouza_controllers_TodoServiceStatisticsController]..>[com_apssouza_monitors_TodoServiceMethodInvokedStore] : requires
"com_apssouza_3_requires_reminder_todo_statistics_GET_"--[com_apssouza_controllers_TodoServiceStatisticsController]
}
interface "reminder/todo-statistics[GET]" as interface.reminder_todo_statistics_GET_
interface.reminder_todo_statistics_GET_--"com_apssouza_3_requires_reminder_todo_statistics_GET_"
component "com_apssouza 4\n\n\n\n\n\n" {
[com_apssouza_monitors_TodoStoreEventChanges]
[com_apssouza_controllers_TodoChangesController]
portin " " as com_apssouza_4_requires_reminder_todo_changes_GET_
[com_apssouza_controllers_TodoChangesController]..>[com_apssouza_monitors_TodoStoreEventChanges] : requires
"com_apssouza_4_requires_reminder_todo_changes_GET_"--[com_apssouza_controllers_TodoChangesController]
}
interface "reminder/todo-changes[GET]" as interface.reminder_todo_changes_GET_
interface.reminder_todo_changes_GET_--"com_apssouza_4_requires_reminder_todo_changes_GET_"
component "com_apssouza 5\n\n\n\n\n\n" {
[com_apssouza_controllers_TodoController]
[com_apssouza_services_UserServiceImpl]
[com_apssouza_bootstrap_TodoLoader]
[TodoController]
[com_apssouza_controllers_UserController]
[com_apssouza_services_TodoServiceImpl]
[com_apssouza_infra_EventPublisher]
[com_apssouza_repositories_TodoRepository]
portin " " as com_apssouza_5_requires_api_gateway_todos_GET_
portin " " as com_apssouza_5_requires_reminder_todos
portin " " as com_apssouza_5_requires_api_gateway_accounts
[com_apssouza_controllers_TodoController]..>[com_apssouza_services_TodoServiceImpl] : requires
[com_apssouza_controllers_UserController]..>[com_apssouza_services_TodoServiceImpl] : requires
[com_apssouza_bootstrap_TodoLoader]..>[com_apssouza_repositories_TodoRepository] : requires
[com_apssouza_controllers_UserController]..>[com_apssouza_services_UserServiceImpl] : requires
[com_apssouza_services_TodoServiceImpl]..>[com_apssouza_infra_EventPublisher] : requires
[com_apssouza_services_TodoServiceImpl]..>[com_apssouza_repositories_TodoRepository] : requires
"com_apssouza_5_requires_api_gateway_todos_GET_"--[com_apssouza_controllers_TodoController]
"com_apssouza_5_requires_api_gateway_accounts"--[com_apssouza_controllers_UserController]
"com_apssouza_5_requires_reminder_todos"--[TodoController]
}
interface "api-gateway/accounts" as interface.api_gateway_accounts
interface.api_gateway_accounts--"com_apssouza_5_requires_api_gateway_accounts"
interface "api-gateway/todos[GET]" as interface.api_gateway_todos_GET_
interface.api_gateway_todos_GET_--"com_apssouza_5_requires_api_gateway_todos_GET_"
interface "reminder/todos" as interface.reminder_todos
interface.reminder_todos--"com_apssouza_5_requires_reminder_todos"
component "com_apssouza_eventsourcing\n\n\n\n\n\n" {
[com_apssouza_eventsourcing_eventstore_EventSerializer]
[com_apssouza_eventsourcing_services_EventSourcingServiceImpl]
[com_apssouza_eventsourcing_eventstore_EventStoreRepository]
[com_apssouza_eventsourcing_services_EventSourcingServiceImpl]..>[com_apssouza_eventsourcing_eventstore_EventStoreRepository] : requires
[com_apssouza_eventsourcing_services_EventSourcingServiceImpl]..>[com_apssouza_eventsourcing_eventstore_EventSerializer] : requires
}
component "com_apssouza_integrations_socket_TodoSocketController\n\n\n\n\n\n" {
[com_apssouza_integrations_socket_TodoSocketController]
}
component "com_apssouza_mailservice\n\n\n\n\n\n" {
[com_apssouza_mailservice_repository_EmailRepository]
[com_apssouza_mailservice_controllers_EmailController]
portin " " as com_apssouza_mailservice_requires_mailer_emails_GET_
[com_apssouza_mailservice_controllers_EmailController]..>[com_apssouza_mailservice_repository_EmailRepository] : requires
"com_apssouza_mailservice_requires_mailer_emails_GET_"--[com_apssouza_mailservice_controllers_EmailController]
}
interface "mailer/emails[GET]" as interface.mailer_emails_GET_
interface.mailer_emails_GET_--"com_apssouza_mailservice_requires_mailer_emails_GET_"
interface "user/accounts" as interface.user_accounts
[UserClient]..>interface.user_accounts : requires
interface "user/accounts[PUT]" as interface.user_accounts_PUT_
[UserClient]..>interface.user_accounts_PUT_ : requires
interface "user/users" as interface.user_users
[UserClient]..>interface.user_users : requires
interface "user/accounts" as interface.user_accounts
[com_apssouza_clients_UserClient]..>interface.user_accounts : requires
interface "user/accounts[PUT]" as interface.user_accounts_PUT_
[com_apssouza_clients_UserClient]..>interface.user_accounts_PUT_ : requires
interface "com_apssouza_eventsourcing_services_ApplicationEventPublisher" as interface.com_apssouza_eventsourcing_services_ApplicationEventPublisher
interface.com_apssouza_eventsourcing_services_ApplicationEventPublisher--[com_apssouza_eventsourcing_services_ApplicationEventPublisher_Provider]
interface "com_apssouza_infra_ApplicationEventPublisher" as interface.com_apssouza_infra_ApplicationEventPublisher
interface.com_apssouza_infra_ApplicationEventPublisher--[com_apssouza_infra_ApplicationEventPublisher_Provider]
interface "com_apssouza_infra_Source" as interface.com_apssouza_infra_Source
interface.com_apssouza_infra_Source--[com_apssouza_infra_Source_Provider]
interface "user/users" as interface.user_users
interface.user_users--[user_users_Provider]

@enduml
